# xmcd CD database file
#
# Track frame offsets:
#	150
#	20943
#	38680
#	55723
#	77173
#	98449
#	125525
#	150012
#	163942
#	182055
#	203427
#	221152
#	233460
#	252661
#	269162
#	290675
#	307550
#
# Disc length: 4403 seconds
#
# Revision: 0
# Processed by: cddbd v1.5PL3 Copyright (c) Steve Scherf et al.
# Submitted via: CDex 1.51
#
DISCID=e2113111
DTITLE=Blues Paradise Good Whiskey Blues vol.13 - A Collection Of Blues Songs From The White Blues
DYEAR=2001
DGENRE=Blues
TTITLE0=Corey Stevens - Gone Too Long
TTITLE1=Marc Benno - Shape I'm In
TTITLE2=Boddy Mack - Doin' Alright
TTITLE3=Doyle Bramhall - The Hunter
TTITLE4=B.C. Farlow and B.Jakson - It's Gonna Rain
TTITLE5=Mason Ruffner - Loaded Down
TTITLE6=Marc Benno - Love Junkie
TTITLE7=Scott Keeton - 100 Mile Blues
TTITLE8=Michael Osborn - Miss Goody Two Shoes
TTITLE9=Corey Stevens - Blue Drop Of Rain
TTITLE10=Boddy Mack - Steppin' Out
TTITLE11=Doyle Bramhall - Too Sorry
TTITLE12=Scott Keeton - Eye On You
TTITLE13=Michael Osborn - Puppy Dog Blues
TTITLE14=B.C. Farlow and B.Jakson - Don't Cry To Me
TTITLE15=Corey Stevens - I'll Play The Blues
TTITLE16=Mason Ruffner - Warriors Bliss (inst)
EXTD=YEAR: 2001
EXTT0=
EXTT1=
EXTT2=
EXTT3=
EXTT4=
EXTT5=
EXTT6=
EXTT7=
EXTT8=
EXTT9=
EXTT10=
EXTT11=
EXTT12=
EXTT13=
EXTT14=
EXTT15=
EXTT16=
PLAYORDER=
